# xmcd CD database file
#
# Track frame offsets:
#	150
#	14885
#	26371
#	38322
#	53027
#	66096
#	76742
#	86026
#	96833
#	112802
#	127628
#	142143
#	159386
#
# Disc length: 2334 seconds
#
# Revision: 0
# Processed by: cddbd v1.5.2PL0 Copyright (c) Steve Scherf et al.
# Submitted via: CDex 1.51
#
DISCID=96091c0d
DTITLE=munichup - acoustic
DYEAR=2003
DGENRE=Jazz
TTITLE0=Fly me to the moon
TTITLE1=Take Five
TTITLE2=Jamaica Farewell
TTITLE3=Brazil
TTITLE4=Blue Moon
TTITLE5=Cheek to Cheek
TTITLE6=Sunny
TTITLE7=Ich bin von Kopf bis Fuﬂ auf Liebe eingestellt
TTITLE8=Half a minute
TTITLE9=Que sera
TTITLE10=We are family
TTITLE11=Route 66
TTITLE12=Meet in Munich
EXTD=YEAR: 2003
EXTT0=
EXTT1=
EXTT2=
EXTT3=
EXTT4=
EXTT5=
EXTT6=
EXTT7=
EXTT8=
EXTT9=
EXTT10=
EXTT11=
EXTT12=
PLAYORDER=
